<?xml version="1.0" encoding="UTF-8"?>
<!DOCTYPE svg PUBLIC "-//W3C//DTD SVG 1.1//EN" "http://www.w3.org/Graphics/SVG/1.1/DTD/svg11.dtd">
<!-- Creator: CorelDRAW X7 -->
<svg xmlns="http://www.w3.org/2000/svg" xml:space="preserve" width="3450px" height="485px" version="1.1" shape-rendering="geometricPrecision" text-rendering="geometricPrecision" image-rendering="optimizeQuality" fill-rule="evenodd" clip-rule="evenodd"
viewBox="0 0 3450 485"
 xmlns:xlink="http://www.w3.org/1999/xlink">
 <g id="Layer_x0020_1">
  <metadata id="CorelCorpID_0Corel-Layer"/>
  <path fill="#0099D7" d="M129 238c0,0 0,0 -1,0 -66,6 -119,63 -115,128 0,0 0,0 0,0 5,67 67,114 136,104 73,-11 143,-21 211,-31 0,0 0,0 0,0 39,-6 78,-12 117,-17 39,-6 77,-12 114,-17 37,-6 73,-11 109,-16 -7,-31 -13,-62 -19,-93 -34,4 -69,9 -105,13 -7,-36 -13,-72 -20,-107 -6,-35 -12,-69 -18,-103 39,24 78,47 116,69 -7,-36 -15,-72 -22,-108 -27,-15 -55,-31 -83,-46 -9,0 -18,0 -27,0 0,0 0,0 0,0 -61,2 -123,4 -188,7 -67,2 -137,4 -209,7 -63,2 -113,51 -109,109 0,0 0,0 0,0 4,56 54,99 113,101zm315 18c-39,3 -79,7 -120,12 -42,4 -84,8 -128,12 -20,2 -35,20 -33,40 0,0 0,0 0,0 2,20 20,34 41,31 44,-5 87,-10 129,-15 41,-5 82,-10 121,-14 -3,-22 -7,-45 -10,-66zm-23 -149c-36,2 -73,4 -110,7 -38,2 -76,4 -116,6 -19,2 -34,17 -32,36 0,0 0,0 0,0 2,18 20,32 39,30 40,-3 79,-6 118,-8 37,-3 74,-6 110,-9 -3,-20 -6,-41 -9,-62z"/>
  <path fill="#FEFEFE" d="M3261 105l100 0 0 1 1 -1 0 212 75 0 0 63 -76 0 -78 0 -80 0 0 -63 78 0 0 -148 -78 56 0 -82 58 -38zm-2386 65l148 0c12,0 22,10 22,22l0 0c0,12 -10,22 -22,22l-148 0 0 -44zm0 103l158 0c12,0 22,9 22,21l0 0c0,12 -10,22 -22,22l-158 0 0 -43zm194 -30l1 0c38,0 69,31 69,69l0 0c0,37 -31,68 -69,68l-279 0 0 -137 0 0 0 -138 269 0c38,0 69,31 69,69l0 0c0,35 -26,64 -60,69zm646 -1l0 0 -129 -136 111 0 87 97 0 0 88 -97 109 0 -128 136 0 0 137 138 -115 0 -91 -100 0 0 -91 100 -114 0 136 -138zm597 -136l0 64 -204 0 0 52 179 0 0 64 -179 0 0 94 -84 0 0 -274 288 0zm566 136l0 0 -129 -136 111 0 87 97 0 0 88 -97 109 0 -128 136 0 0 137 138 -115 0 -91 -100 0 0 -92 100 -113 0 136 -138zm-1566 -72l118 0c21,0 39,18 39,39l0 68c0,21 -18,39 -39,39l-118 0c-21,0 -39,-18 -39,-39l0 -68c0,-21 18,-39 39,-39zm-52 -65l222 0c41,0 74,34 74,75l0 126c0,41 -33,74 -74,74l-222 0c-41,0 -74,-33 -74,-74l0 -126c0,-41 33,-75 74,-75zm1214 65l117 0c21,0 39,18 39,39l0 68c0,21 -18,39 -39,39l-117 0c-22,0 -40,-18 -40,-39l0 -68c0,-21 18,-39 40,-39zm-53 -65l222 0c41,0 74,34 74,75l0 126c0,41 -33,74 -74,74l-222 0c-40,0 -74,-33 -74,-74l0 -126c0,-41 34,-75 74,-75z"/>
 </g>
</svg>
