<svg xmlns="http://www.w3.org/2000/svg" xml:space="preserve" width="3543" height="550" fill-rule="evenodd" clip-rule="evenodd" image-rendering="optimizeQuality" shape-rendering="geometricPrecision" text-rendering="geometricPrecision" viewBox="0 0 3543 550"><path fill="#0099d7" d="M176 270c0 1-1 1-1 1-66 5-119 63-115 128 4 66 67 114 136 103 73-10 143-21 210-31 40-5 79-11 117-17 39-6 77-11 115-17 37-5 73-10 108-16-6-31-12-62-19-92q-51 6-105 12c-6-36-13-72-19-107-7-34-13-68-19-102l117 69c-8-37-15-73-22-108-28-16-55-31-83-47-9 0-19 1-28 1-60 2-123 4-187 6-68 2-137 5-210 7-63 2-113 51-108 110 3 55 54 98 113 100m314 18c-39 4-78 8-119 12-42 4-85 8-128 13-21 2-36 20-34 39 2 20 21 34 41 32 44-5 88-11 130-16 41-4 81-9 121-14-4-22-7-44-11-66m-23-148c-36 2-72 4-109 6-38 2-77 5-116 7-20 1-34 17-33 35 2 19 20 32 40 31q60-4.5 117-9c38-3 75-6 111-8-3-21-7-42-10-62"/><path fill="#fefefe" d="M3307 137h101v1h1v211h74v64h-234v-64h79V201l-78 56v-82zM922 203h148c12 0 22 9 22 21s-10 22-22 22H922zm0 102h158c12 0 21 10 21 22s-9 22-21 22H922zm194-30h1c38 0 69 31 69 69s-31 69-69 69H838V138h269c38 0 69 31 69 69 0 35-26 64-60 68m646 0-129-137h111l87 97 87-97h110l-128 137 136 138h-114l-91-100-92 100h-113zm596-137v64h-203v53h178v64h-178v94h-84V138zm567 137-129-137h111l86 97 88-97h109l-128 137 137 138h-115l-91-100-91 100h-113zm-1566-72h117c22 0 40 17 40 39v67c0 22-18 39-40 39h-117c-22 0-39-17-39-39v-67c0-22 17-39 39-39m-52-65h222c40 0 74 33 74 74v127c0 41-34 74-74 74h-222c-41 0-74-33-74-74V212c0-41 33-74 74-74m1213 65h117c22 0 40 17 40 39v67c0 22-18 39-40 39h-117c-22 0-39-17-39-39v-67c0-22 17-39 39-39m-52-65h222c40 0 74 33 74 74v127c0 41-34 74-74 74h-222c-41 0-74-33-74-74V212c0-41 33-74 74-74"/></svg>